<?xml version="1.0" encoding="utf-8"?>
<!-- Generator: Adobe Illustrator 23.0.3, SVG Export Plug-In . SVG Version: 6.00 Build 0)  -->
<svg version="1.1" id="Layer_1" xmlns="http://www.w3.org/2000/svg" xmlns:xlink="http://www.w3.org/1999/xlink" x="0px" y="0px"
	 viewBox="0 0 1200 1200" enable-background="new 0 0 1200 1200" xml:space="preserve">
<g>
	<path fill="#541C00" d="M131.349,684.216c-15.559-11.406-21.387-27.552-24.215-44.647c-3.576-21.617-9.135-43.506,1.618-64.993
		c1.295-2.587,0.294-6.468-0.054-9.704c-0.92-8.539-2.066-17.053-2.865-23.504c-4.607,6.423-9.104,15.328-15.997,21.603
		c-7.784,7.087-12.7,6.337-20.358-1.008c-14.854-14.248-21.732-32.479-18.826-52.508c2.579-17.78,10.599-33.85,27.664-43.08
		c9.269-5.014,12.449-10.898,10.736-22.605c-4.385-29.968,22.466-49.137,50.382-37.351c13.309,5.619,22.495,15.605,29.486,27.961
		c6.927,12.243,16.245,22.253,28.514,29.317c1.689,0.972,3.673,1.431,6.122,1.328c-15.521-15.552-26.573-33.725-35.43-53.282
		c-8.217-18.142-10.354-36.418-4.72-56.307c10.438-36.85,22.064-72.943,44.938-104.327c3.569-4.897,6.492-10.532,10.902-14.507
		c42.211-38.048,83.761-77.166,134.112-104.551c17.287-9.402,36.371-15.771,55.089-22.201c20.323-6.981,41.29-12.066,61.771-18.618
		c27.572-8.82,55.884-13.582,84.645-13.888c58.094-0.618,115.958,3.783,173.266,13.271c32.26,5.341,62.608,16.756,91.617,32.441
		c34.791,18.811,65.686,42.075,94.318,69.367c33.642,32.067,62.774,67.506,81.39,109.767
		c15.055,34.176,25.743,70.396,36.687,106.223c7.795,25.518,4.156,51.346-6.423,79.265c6.573-3.172,10.836-4.772,14.623-7.137
		c16.84-10.514,35.285-11.927,54.328-9.86c10.737,1.165,20.285,5.41,28.117,12.891c20.537,19.617,29.316,44.328,26.793,71.948
		c-2.427,26.571-17.826,42.702-51.363,54.038c-10.317,3.487-21.425,4.633-33.282,7.081c-0.858,17.578-1.349,36.54-12.825,51.259
		c-11.586,14.86-27.385,23.875-49.687,19.058c1.398,5.605,2.017,9.69,3.424,13.482c16.793,45.262,16.431,90.711,1.941,136.421
		c-4.99,15.742-14.87,26.764-31.772,33.074c0.36,6.732,0.681,13.768,1.123,20.796c2.138,33.984-6.383,64.395-29.271,90.382
		c-7.644,8.68-14.639,18.027-21.111,27.622c-11.333,16.804-26.41,29.452-42.496,41.355c-39.882,29.511-84.433,47.298-133.277,55.201
		c-18.499,2.993-36.75,7.498-55.155,11.108c-32.18,6.312-64.678,7.747-97.285,4.951c-46.219-3.964-92.607-7.72-137.495-20.027
		c-27.606-7.569-54.6-17.568-81.479-27.525c-22.164-8.21-43.758-17.963-65.604-27.032c-0.51-0.212-1.002-0.524-1.533-0.621
		c-39.262-7.184-64.532-36.802-93.803-59.564c-15.526-12.073-29.445-26.795-41.921-42.09
		c-29.33-35.956-47.576-75.888-36.172-124.748c-13.219-8.092-24.048-17.492-27.508-33.422c-4.452-20.499-4.725-40.418,2.964-60.221
		C121.171,712.757,125.865,699.228,131.349,684.216z M504.927,609.266c-2.697,1.754-5.492,3.375-8.076,5.282
		c-20.16,14.882-32.189,11.343-38.315-13.011c-3.731-14.835-4.253-30.454-6.702-45.643c-2.096-12.999-4.005-26.137-7.611-38.753
		c-3.647-12.758-11.355-22.738-26.109-24.199c-17.042-1.688-35.695,6.416-43.558,19.254c2.606-0.495,4.705-0.998,6.833-1.283
		c35.9-4.815,57.499,13.622,58.179,49.68c0.062,3.302-0.176,6.61-0.235,9.916c-0.207,11.571-1.117,23.191-0.346,34.698
		c0.54,8.065,2.685,16.223,5.397,23.886c2.652,7.493,9.188,10.392,17.151,10.409c16.51,0.034,36.47-13.981,43.073-30.517
		c4.55-5.343,8.337-11.74,13.859-15.743c5.914-4.287,13.462-6.318,21.07-9.676c0.199-6.699,0.404-13.617,0.584-19.684
		c-9.407-5.571-15.849-1.569-21.054,3.13c-6.861,6.194-12.645,13.587-18.838,20.513c-4.79,5.357-9.442,11.451-17.863,8.195
		c-5.979-2.312-7.739-10.331-4.645-20.586c1.415-4.689,3.871-9.062,5.822-13.592c1.411-3.276,2.768-6.575,4.591-10.919
		c-6.854-1.937-12.396-3.503-19.315-5.459c0.371,22.05,0.201,42.571,10.628,61.936c8.297-3.14,15.232-5.764,23.135-8.755
		C503.601,603.086,504.264,606.176,504.927,609.266z M908.377,629.273l0.407,0.223c-2.85-8.801-6.698-17.425-8.303-26.448
		c-2.12-11.913-2.338-24.156-3.677-36.223c-0.456-4.105-1.831-8.107-3.532-15.322c-6.571,5.385-12.46,8.13-15.025,12.729
		c-6.115,10.965-10.826,22.735-15.797,34.312c-5.421,12.624-10.234,25.513-15.86,38.04c-1.993,4.437-5.256,8.458-8.55,12.12
		c-4.942,5.493-10.926,10.335-18.802,6.971c-7.056-3.014-7.953-10.034-7.916-16.896c0.021-3.861,0.765-7.751,0.469-11.572
		c-0.276-3.554-1.5-7.035-2.391-10.917c-2.691,0.859-4.558,0.947-5.703,1.902c-7.617,6.355-14.984,13.009-22.609,19.354
		c-19.406,16.149-37.244,17.339-57.122,1.992c-17.384-13.421-34.971-27.087-42.412-49.405c-2.917-8.75-7.972-15.917-18.69-16.035
		c-11.559-0.128-10.12,10.228-12.661,16.62c-6.95,17.478-18.004,30.087-36.509,35.478c-3.004,0.875-5.952,2.474-8.485,4.338
		c-9.292,6.842-18.208,14.206-27.632,20.853c-7.864,5.547-16.241,10.367-25.822,16.411c34.536,20.207,66.084,42.472,103.683,51.219
		c51.605,12.004,103.78,22.143,157.191,19.567c52.956-2.554,103.806-13.987,150.344-40.731c3.334-1.916,6.855-3.792,9.585-6.418
		c6.004-5.775,10.364-40.412,6.664-49.806c-12.604,6.631-24.619,14.942-37.915,19.598c-54.24,18.996-110.505,25.518-167.777,24.391
		c-43.119-0.848-83.32-15.3-124.129-26.839c-4.728-1.337-9.257-3.654-13.568-6.072c-2.234-1.253-3.786-3.723-8.228-8.309
		c19.79,4.726,35.67,9.021,51.767,12.241c22.697,4.541,45.412,10,68.382,11.899c24.099,1.993,48.509,0.414,72.779,0.095
		c37.767-0.496,74.632-7.04,110.811-17.55c15.311-4.448,29.291-11.601,41.892-22.148c-6.215-10.764-10.178-21.983-24.312-25.177
		c-3.658,5.002-7.17,9.81-10.688,14.613C930.71,628.655,921.523,634.39,908.377,629.273z M958.816,518.41
		c15.501-9.611,30.234-20.233,41.196-35.008c4.482-6.041,8.202-13.207,10.176-20.432c3.953-14.473,4.682-29.364,1.693-44.3
		c-7.296-36.46-19.587-71.457-35.276-104.854c-18.69-39.785-45.668-73.866-78.435-103.689
		c-26.263-23.904-53.668-45.356-84.919-62.658c-30.963-17.143-63.436-29.112-98.001-33.624
		c-44.843-5.854-90.036-9.258-135.158-12.653c-33.293-2.506-66.036,2.144-98.087,11.64c-23.78,7.046-47.916,12.998-71.395,20.917
		c-18.177,6.131-36.627,12.763-53.077,22.385c-23.256,13.602-44.985,29.877-67.003,45.522
		c-48.607,34.537-80.838,81.406-97.776,137.903c-15.344,51.179-1.957,79,31.686,105.777c38.319,30.5,83.512,46.015,129.066,61.656
		c15.576-17.657,34.061-28.045,57.599-29.686c26.754-1.866,39.776,14.58,49.421,34.655c13.113,1.6,25.093,3.297,37.123,4.469
		c14.737,1.436,29.539,2.207,44.267,3.717c6.996,0.717,14.924,0.766,20.571,4.187c7.829,4.743,13.405,2.834,19.63-1.475
		c4.082-2.826,8.441-5.366,12.101-8.67c16.867-15.226,37.088-21.464,59.236-21.912c20.857-0.421,37.538,7.651,48.034,26.407
		c2.659,4.752,4.896,9.74,7.091,14.146c1.773,0.572,2.819,1.229,3.843,1.195c31.406-1.047,62.811-2.103,94.211-3.308
		c7.892-0.303,14.426-3.453,20.999-8.303c11.911-8.788,24.006-18.854,37.682-23.44C909.173,484.264,937.014,486.086,958.816,518.41z
		 M191.385,785.067c-10.716,6.741-15.544,15.896-17.509,27.354c-5.699,33.235,2.29,63.616,18.955,92.095
		c23.666,40.444,58.832,69.737,95.665,97.283c8.395,6.278,17.708,11.38,25.807,17.993c15.381,12.559,33.097,19.656,52.064,24.204
		c28.96,6.945,58.201,12.861,86.875,20.827c50.902,14.142,102.417,21.966,155.353,20.548c59.827-1.602,119.382-6.798,176.449-25.139
		c51.312-16.491,99.01-40.488,134.936-83.244c18.484-21.999,29.132-46.408,30.966-75.014c1.186-18.505-4.445-33.418-19.872-44.134
		c-23.507,17.798-32.347,20.389-73.313,21.621c-11.158,13.897-19.687,30.793-38.546,37.049c-19.427,6.444-36.608-1.747-53.815-8.656
		c-12.273,12.101-25.794,19.6-42.502,21.825c-18.905,2.517-29.722-12.26-43.884-19.399c-16.104,6.841-31.839,10.819-48.79,5.177
		c-2.898-0.965-7.556,0.749-10.408,2.687c-15.314,10.403-31.424,12.357-48.89,6.513c-3.338-1.117-9.161-1.888-10.68-0.115
		c-5.983,6.987-18.767,7.648-18.933,20.35c-0.023,1.791-4.805,4.814-7.578,5.058c-15.323,1.345-31.019,4.359-45.999,2.371
		c-25.092-3.33-50.022-8.945-74.516-15.487c-47.706-12.741-92.321-33.634-135.426-57.164c-17.146-9.36-31.237-24.33-46.621-36.865
		c-0.744-0.606-0.552-2.36-1.199-5.596c4.954,3.226,8.092,5.331,11.29,7.341c15.855,9.968,30.937,21.598,47.779,29.457
		c23.948,11.174,49.196,19.56,73.883,29.152c39.29,15.266,80.662,22.763,121.491,32.19c9.299,2.147,19.207,1.655,28.323,2.34
		c-10.386-12.332-20.474-24.31-30.958-36.759c-30.972,10.81-61.18,11.676-86.349-13.414c-25.452,5.693-29.903,3.908-60.443-23.744
		c-30.838,13.492-46.28-7.862-61.418-29.127c-21.816,6.791-31.071-6.476-38.12-23.31
		C214.873,812.643,203.16,799.058,191.385,785.067z M155.248,694.032c-15.913,29.022-15.19,57.602-7.69,90.712
		c6.943-7.078,11.755-11.347,15.809-16.243c10.198-12.315,22.816-20.99,38.242-24.815c18.157-4.503,36.383-9.186,54.859-11.852
		c50.364-7.266,96.855,4.379,137.734,34.22c38.647,28.211,71.55,62.217,94.333,105.07c6.47,12.169,13.568,24.048,21.052,35.624
		c11.006,17.024,22.148,17.96,35.961,3.561c3.816-3.979,7.11-8.46,10.937-12.427c15.691-16.263,30.505-33.56,47.527-48.3
		c18.308-15.853,38.758-29.226,58.212-43.763c15.171-11.336,31.789-19.583,49.764-25.681c19.658-6.668,38.877-14.627,58.287-22.023
		c-84.209-9.839-166.78-22.05-231.223-85.232c-3.658,1.482-7.148,3.022-10.725,4.324c-61.924,22.548-124.864,40.677-191.468,41.11
		C275.624,718.715,214.289,719.118,155.248,694.032z M611.67,610.783c11.964-5.39,18.152-13.493,22.809-23.025
		c1.69-3.459,2.742-7.223,4.281-10.763c6.652-15.298,13.564-18.906,29.932-16.083c11.243,1.939,18.616,8.533,24.15,18.219
		c7.089,12.408,12.879,26.352,22.639,36.28c21.611,21.983,43.224,27.956,65.713,4.245c5.591-5.895,12.628-10.912,19.875-14.628
		c10.951-5.615,19.282-1.361,22.915,10.555c1.413,4.635,2.025,9.515,3.361,16.037c2.892-4.212,5.582-7.007,6.962-10.344
		c4.842-11.7,9.611-23.458,13.699-35.435c5.115-14.988,12.901-28.183,25.089-38.261c15.929-13.171,31.401-7.899,35.341,12.262
		c2.745,14.045,3.799,28.415,5.845,42.606c0.66,4.578,2.073,9.048,3.96,17.029c6.115-6.97,10.123-11.182,13.728-15.714
		c11.585-14.565,24.242-16.039,37.679-2.708c7.343,7.286,13.189,16.236,18.92,24.955c8.493,12.924,17.585,25.12,29.767,33.894
		c9.785-2.301,13.802-8.41,15.239-16.643c3.886-22.264,7.638-44.551,11.566-66.808c3.201-18.138,8.77-35.472,20.321-50.118
		c11.333-14.369,32.115-13.785,42.462,0.66c7.238,10.106,5.252,22.152-6.038,29.649c-0.194-5.487-0.307-10.182-0.538-14.871
		c-0.354-7.182-4.908-10.685-11.221-12.586c-6.11-1.84-11.001,0.201-14.409,5.251c-11.301,16.749-16.227,35.307-16.942,56.77
		c12.075-2.945,22.227-5.205,32.258-7.91c29.009-7.823,38.194-25.627,27.841-53.853c-1.513-4.125-3.326-8.211-5.551-11.991
		c-6.047-10.27-14.712-15.758-27.158-15.618c-11.27,0.127-21.727,1.908-31.762,7.436c-28.728,15.825-57.685,31.235-86.576,46.821
		c9.42,23.163,19.611,27.089,51.546,19.664c-0.642,11.681-3.287,15.164-13.783,18.148c-20.052,5.702-43.186-4.509-52.253-24.882
		c-4.618-10.375-6.707-22.062-8.716-33.373c-3.917-22.048-12.158-29.776-34.556-28.804c-20.72,0.9-40.445,6.148-57.475,18.561
		c-12.03,8.769-23.144,18.807-35.275,27.422c-9.832,6.982-20.421,12.955-30.973,18.84c-4.616,2.575-9.677,2.96-11.922-4.592
		c9.448-7.338,19.129-14.858,30.43-23.636c-31.556,2.408-60.063,4.583-89.441,6.824c7.147,17.6,20.108,28.479,34.449,39.374
		c-9.18,6.717-15.686,2.677-21.399-0.974c-14.783-9.45-25.71-22.446-32.434-38.749c-2.523-6.118-4.49-12.464-6.967-18.602
		c-6.612-16.382-19.528-24.595-36.438-22.826c-13.424,1.405-26.909,5.486-39.511,10.52c-11.127,4.445-21.072,11.851-32.9,18.743
		c7.653,5.854,15.121,11.567,23.195,17.744c-5.788,5.33-10.694,4.092-14.975,1.718c-9.589-5.318-19.421-10.469-28.108-17.066
		c-7.794-5.92-15.247-7.41-24.632-5.289c-18.684,4.222-29.288,17.475-39.054,31.995c7.734-4.991,14.518-11.438,22.443-15.823
		c19.722-10.91,35.364-1.032,35.147,21.475c-0.055,5.757,0.075,11.516,0.14,19.867c11.106-6.722,19.127-12.442,27.868-16.675
		c15.147-7.336,24.54-1.962,26.909,14.569C610.047,596.585,610.711,602.937,611.67,610.783z M140.515,578.406
		c2.274,16.173,12.482,25.038,25.44,32.255c31.478,17.534,65.802,25.363,101.022,29.401c35.893,4.115,71.618,1.975,106.91-6.52
		c6.28-1.512,13.065-4.966,23.428,0.313c-8.463,4.087-13.932,7.519-19.884,9.481c-67.976,22.413-135.136,18.27-200.582-9.088
		c-20.604-8.613-41.728-19.479-46.916-45.783c-0.719,11.302-0.685,22.221-0.45,33.137c0.501,23.252,11.1,38.694,32.829,48.729
		c21.957,10.141,44.757,15.393,68.232,19.128c47.092,7.492,94.642,10.463,142.04,7.087c48.017-3.42,94.621-15.678,140.277-31.143
		c26.391-8.94,50.47-22.337,73.537-37.597c4.661-3.084,9.962-8.499,10.71-13.478c1.334-8.884-0.578-18.255-1.205-28.604
		c-11.694,2.256-18.176,9.323-25.628,14.674c-7.442,5.344-14.711,9.285-24.199,3.425c-9.934-6.135-13.641-4.862-19.651,4.892
		c-2.308,3.746-4.023,7.858-6.006,11.805c-9.567,19.036-25.683,30.138-45.448,35.936c-24.646,7.231-43.234-3.586-48.216-28.696
		c-2.331-11.75-1.619-24.12-2.094-36.216c-0.23-5.868-0.018-11.753,0-20.437c-13.699,4.718-25.066,8.483-36.326,12.543
		c-24.937,8.991-48.848,20.024-70.614,35.407c-19.621,13.867-46.421,8.134-59.058-12.459c-3.111-5.07-5.96-10.301-9.777-16.929
		c-3.567,6.773-5.974,12.156-9.087,17.094c-7.993,12.681-18.437,13.825-28.371,2.79c-5.134-5.702-9.223-12.345-14.161-19.078
		c-16.767,2.891-25.459-6.018-28.342-21.624C158.684,572.294,149.536,575.371,140.515,578.406z M862.984,865.066
		c28.22-3.048,52.634-9.404,65.721-38.974c-7.746-6.644-16.256-14.293-25.144-21.473c-10.221-8.256-20.875-15.974-31.167-24.146
		c-19.669-15.617-40.566-24.006-65.394-12.328c-3.458,1.626-7.307,2.446-11.01,3.519c-59.123,17.128-116.611,37.483-162.601,81.03
		c-4.376,4.143-9.717,7.258-14.563,10.913c-16.314,12.304-29.213,27.831-42.645,42.852c0.477,1.198,0.953,2.396,1.43,3.594
		c8.765-0.815,17.53-1.629,25.958-2.412c1.499-15.035,2.339-15.873,14.551-14.784c4.387,0.392,8.727,1.313,13.089,1.985
		c19.237,2.964,37.347,0.939,53.472-11.273c2.746-2.08,6.608-2.688,12.025-4.772c-0.587,7.819-1.011,13.472-1.423,18.958
		c12.851,10.615,27.78,13.874,40.378,5.313c17.954-12.202,34.426-11.129,53.696-4.864c16.398,5.332,31.896,0.17,42.24-14.842
		c5.897-8.56,10.659-17.895,16.339-26.616c1.607-2.467,4.682-5.564,7.02-5.512c2.211,0.049,4.711,3.604,6.374,6.093
		C862.43,858.977,862.282,861.464,862.984,865.066z M383.982,871.033c-0.03-2.046,0.189-3.707-0.119-5.263
		c-1.338-6.748-6.377-15.135,2.229-19.156c8.441-3.943,12.684,4.767,16.431,10.463c16.603,25.241,42.359,25.431,68.903,27.601
		c-5.374-14.684-26.192-44.784-37.915-55.504c-12.62-11.54-24.903-23.5-38.077-34.376c-39.29-32.435-84.377-49.346-135.596-47.154
		c-19.584,0.838-39.161,3.858-57.601,13.407c4.705,16.253,10.82,29.736,28.419,34.955c1.719-4.552,3.133-8.296,6.023-15.946
		c4.146,7.54,6.587,11.998,9.045,16.445c3.987,7.211,7.271,14.955,12.179,21.475c5.083,6.752,8.108,6.027,15.328-0.871
		c1.082-1.033,2.738-1.465,4.419-2.323c15.329,20.44,28.88,43.754,60.344,34.557C351.796,860.365,363.062,875.774,383.982,871.033z
		 M972.695,709.779c-18.511,8.503-35.55,17.58-53.491,24.219c-18.037,6.675-36.973,10.924-55.527,16.239
		c9.734,7.828,18.555,15.169,27.655,22.145c5.205,3.99,10.524,8.098,16.388,10.91c14.725,7.061,26.612,17.249,36.97,29.738
		c8.353,10.071,17.533,19.456,26.367,29.167C996.776,823.223,998.15,749.642,972.695,709.779z M108.367,453.57
		c14.043,1.75,28.857,0.988,37.429,19.217c-13.464-2.44-23.951-11.387-35.863-2.038c8.37,8.313,16.377,15.759,23.782,23.764
		c6.965,7.529,11.384,16.474,9.685,27.088c-0.438,2.735-3.161,5.105-4.834,7.642c-2.213-1.923-5.879-3.512-6.409-5.821
		c-4.006-17.446-18.195-25.822-31.062-35.02c-8.308-5.939-14.616-4.647-19.432,4.165c-4.677,8.557-7.774,18.146-10.346,27.614
		c-1.325,4.878-0.67,10.738,5.032,14.479c3.336-5.184,5.988-10.048,9.339-14.37c9.029-11.644,16.68-12.013,27.74-2.208
		c9.059,8.032,11.569,18.368,11.558,29.827c-0.007,7.525,0.946,14.456,12.396,14.985c1.791-31.868,19.562-52.625,46.61-65.439
		c-9.742-14.357-19.362-28.386-28.809-42.531c-3.673-5.5-6.547-11.568-10.507-16.835c-7.573-10.075-20.365-16.33-26.713-12.557
		C107.278,431.882,107.509,442.457,108.367,453.57z M334.659,566.627c-1.047-0.894-2.094-1.787-3.141-2.681
		c-4.639,4.046-9.351,8.011-13.903,12.151c-19.718,17.934-37.917,16.001-52.017-6.05c-3.154-4.933-6.228-8.525-12.302-9.752
		c-9.85-1.989-17.177-7.599-19.872-17.721c-2.035-7.647-7.293-8.975-13.955-7.983c-2.705,0.403-5.312,1.434-8.01,1.923
		c-11.674,2.115-15.927-0.39-19.869-11.753c-1.394-4.018-2.516-8.13-3.788-12.281c-19.193,8.143-30.982,23.917-28.908,38.972
		c4.036-2.29,7.646-4.81,11.612-6.496c10.15-4.316,15.705-0.494,15.967,10.742c0.12,5.144,0.004,10.294-0.005,15.894
		c16.951-5.043,16.764-4.935,25.111,9.502c3.227,5.581,7.512,10.549,12.135,16.93c5.29-7.747,8.96-14.492,13.93-20.079
		c7.516-8.448,15.388-7.527,21.522,1.952c3.89,6.012,6.906,12.592,10.816,18.589c10.044,15.402,27.804,17.621,40.845,4.623
		C321.333,592.637,327.566,579.3,334.659,566.627z M342.488,586.557c0.89,1.161,1.78,2.323,2.67,3.484
		c23.878-17.398,50.229-28.579,79.174-32.766c-3.201-19.818-8.122-26.133-22.259-29.189c-17.469-3.776-26.941-0.336-36.255,15.209
		C357.404,557.335,350.216,572.108,342.488,586.557z M268.273,504.397c0.124-1.409,0.247-2.818,0.371-4.227
		c-6.143-1.083-12.525-3.796-18.383-2.935c-15.606,2.293-30.985,6.123-47.582,9.577c1.07,3.473,2.582,8.378,3.388,10.992
		c11.254,0.845,20.884-0.601,28.366,2.75c7.229,3.238,12.244,11.42,18.742,17.942c15.199-3.588,27.8-12.381,37.073-26.022
		c-5.385-6.808-10.458-6.011-16.579-2.559c-8.408,4.742-17.282,8.695-27.433,8.336c3.168-3.39,6.819-5.542,10.519-7.606
		C260.569,508.518,264.431,506.476,268.273,504.397z M329.338,518.929c-7.559,7.521-13.477,15.194-21.064,20.459
		c-7.593,5.268-16.855,8.131-26.189,12.417c14.322,8.546,17.124,9.439,22.983,3.279c9.012-9.476,17.048-19.889,25.291-30.071
		C330.973,524.254,329.933,522.158,329.338,518.929z"/>
	<path fill="#EDAC40" d="M958.816,518.41c-21.802-32.323-49.643-34.146-93.503-19.437c-13.677,4.586-25.771,14.652-37.682,23.44
		c-6.573,4.849-13.107,8-20.999,8.303c-31.4,1.205-62.805,2.261-94.211,3.308c-1.024,0.034-2.07-0.622-3.843-1.195
		c-2.195-4.407-4.432-9.395-7.091-14.146c-10.496-18.755-27.177-26.828-48.034-26.407c-22.148,0.447-42.369,6.685-59.236,21.912
		c-3.66,3.304-8.019,5.844-12.101,8.67c-6.226,4.309-11.802,6.218-19.63,1.475c-5.647-3.421-13.575-3.47-20.571-4.187
		c-14.728-1.51-29.531-2.281-44.267-3.717c-12.03-1.172-24.009-2.869-37.123-4.469c-9.645-20.075-22.668-36.521-49.421-34.655
		c-23.538,1.642-42.023,12.03-57.599,29.686c-45.555-15.641-90.747-31.156-129.066-61.656
		c-33.643-26.778-47.03-54.599-31.686-105.777c16.939-56.496,49.169-103.366,97.776-137.903
		c22.018-15.644,43.747-31.919,67.003-45.522c16.45-9.622,34.9-16.254,53.077-22.385c23.479-7.919,47.615-13.871,71.395-20.917
		c32.05-9.497,64.794-14.146,98.087-11.64c45.122,3.396,90.315,6.8,135.158,12.653c34.565,4.512,67.038,16.481,98.001,33.624
		c31.251,17.303,58.656,38.755,84.919,62.658c32.768,29.824,59.745,63.904,78.435,103.689c15.69,33.397,27.98,68.394,35.276,104.854
		c2.989,14.936,2.26,29.827-1.693,44.3c-1.973,7.226-5.694,14.391-10.176,20.432C989.05,498.176,974.317,508.798,958.816,518.41z
		 M367.952,396.884c20.122,35.331,40.97,45.652,73.924,37.159c27.766-7.156,50.106-27.671,50.659-48.593
		c-4.72,3.759-8.464,6.585-12.036,9.614c-11.485,9.74-24.047,17.357-38.956,20.691c-27.772,6.21-45.717-2.282-58.143-27.703
		c-0.723-1.479-1.083-3.146-1.884-4.574c-4.463-7.965-7.607-8.961-16.017-4.48c-6.302,3.358-12.095,7.752-18.562,10.705
		c-12.484,5.7-20.734,2.809-27.774-9.005c-2.154-3.615-3.928-7.457-6.17-11.759c-6.908,10.986-5.92,18.56,2.837,28.03
		C328.387,410.547,340.478,410.669,367.952,396.884z M890.318,389.28c-2.336,5.866-3.428,8.328-4.307,10.863
		c-4.507,12.996-9.607,17.645-22.965,16.243c-9.562-1.004-18.845-5.039-28.136-8.079c-3.784-1.238-7.26-3.419-10.875-5.172
		c3.311,17.822,16.585,22.572,30.456,25.493c20.234,4.26,35.369-2.829,42.856-24.164c16.44,15.979,34.351,20.096,54.586,14.11
		c17.38-5.141,26.395-15.7,25.634-33.765c-0.526-12.507-3.893-24.926-6.443-37.291c-0.497-2.413-3.076-4.397-5.921-8.231
		c1.699,16.082,4.081,29.611,4.3,43.174c0.233,14.391-7.078,22.544-20.773,26.077c-14.093,3.635-27.279,1.82-39.336-6.903
		C903.832,397.611,897.871,394.142,890.318,389.28z M446.177,264.797c-23.775-0.264-46.501,19.546-47.931,42.221
		c-0.266,4.219,0.465,8.901,2.138,12.763c4.361,10.071,14.608,11.902,22.842,4.616C429.765,318.611,446.678,274.69,446.177,264.797z
		 M726.837,267.876c-0.884,1.373-1.768,2.746-2.652,4.118c6.114,14.073,11.782,28.364,18.511,42.136
		c3.971,8.126,11.267,10.915,17.637,8.237c7.347-3.089,8.61-9.514,8.045-16.513c-1.356-16.803-9.595-29.4-24.787-36.43
		C738.795,267.205,732.466,268.298,726.837,267.876z M764.078,218.792c-0.358,4.769-2.036,9.07-0.657,11.86
		c6.062,12.262,12.57,24.361,19.818,35.955c3.554,5.684,9.433,10.072,16.79,5.814c6.645-3.846,7.159-10.315,5.853-17.348
		C802.304,235.804,787.935,222.622,764.078,218.792z M571.847,265.191c-10.896,13.179-19.952,38.502-18.293,50.752
		c1.001,7.39,3.452,14.04,12.034,15.67c8.205,1.558,13.582-2.506,17.594-9.176C592.772,306.494,587.615,278.745,571.847,265.191z
		 M277.03,309.964c-0.914,15.278,8.399,21.75,19.286,16.185c3.743-1.913,7.459-5.171,9.551-8.767
		c5.524-9.497,10.434-19.389,14.931-29.419c1.084-2.416,0.705-7.192-0.965-8.684c-1.847-1.651-6.719-2.083-8.937-0.776
		c-9.411,5.545-18.97,11.194-27.152,18.322C279.624,300.412,278.332,307.246,277.03,309.964z M629.974,211.775
		c-7.314,15.602-8.763,30.47-4.972,45.739c1.694,6.822,6.012,12.178,13.877,11.612c7.412-0.533,11.526-5.314,13.21-12.583
		C656.242,238.608,648.725,222.225,629.974,211.775z M819.995,177.973c5.285,16.603,11.178,29.137,23.046,37.903
		c5.63,4.159,12.043,6.377,17.928,0.826c5.893-5.558,4.069-12.298,0.212-17.965C852.005,185.252,838.617,179.509,819.995,177.973z
		 M386.911,181.571c-12.116,4.705-22.543,8.219-32.457,12.833c-4.808,2.238-9.795,5.805-12.577,10.136
		c-2.197,3.418-2.728,9.687-1.007,13.242c1.232,2.544,7.581,4.112,11.355,3.661C367.265,219.648,383.512,201.381,386.911,181.571z
		 M922.639,322.101c2.531-15.502-4.611-31.072-15.589-36.544c-3.086-1.538-7.994-2.665-10.483-1.231
		c-2.438,1.404-4.577,6.745-3.856,9.602c2.533,10.034,5.62,20.094,10.078,29.386c1.596,3.328,7.974,6.584,11.639,6.072
		C918.087,328.876,921.082,323.609,922.639,322.101z M521.33,183.568c-5.305,1.163-10.015,0.847-12.633,3.034
		c-6.721,5.615-12.852,12.051-18.577,18.711c-5.193,6.04-8.857,13.291-4.172,21.104c1.66,2.767,6.038,5.601,9.093,5.514
		c8.971-0.257,13.19-7.149,15.78-14.728C514.327,206.949,517.315,196.519,521.33,183.568z M509.501,128.771
		c-14.664,3.279-29.012,4.29-41.699,12.165c-1.371,0.851-2.641,1.975-3.701,3.197c-3.857,4.447-6.671,10.129-1.822,14.467
		c2.866,2.564,10.122,3.934,13.027,2.092c11.871-7.525,22.872-16.435,34.021-25.057C510.098,135.04,509.46,132.626,509.501,128.771z
		 M666.482,153.422c-3.044,12.119-1.421,30.471,3.424,37.922c3.199,4.919,7.867,9.397,13.416,6.203
		c3.963-2.281,7.857-7.887,8.347-12.383C693.047,172.494,679.98,157.04,666.482,153.422z M599.852,141.516
		c-5.727,8.232-11.277,14.892-15.239,22.392c-2.415,4.572-3.639,10.58-3.053,15.673c0.467,4.054,3.956,10.199,7.071,10.86
		c3.476,0.738,9.751-2.627,11.827-6.027c7.109-11.641,7.14-24.817,4.906-37.949C605.163,145.278,603.15,144.397,599.852,141.516z
		 M722.978,138.492c1.601,9.71,7.121,16.881,14.457,22.762c4.106,3.291,8.918,4.603,13.567,0.655
		c4.86-4.128,3.265-8.936,0.841-13.471C747.027,139.429,736.161,135.57,722.978,138.492z M282.21,233.756
		c-12.57-3.059-19.31,3.614-26.426,7.72c-4.407,2.542-8.298,7.046-10.689,11.582c-1.266,2.402,0.216,7.582,2.264,9.935
		c1.361,1.564,6.096,0.985,8.988,0.176c2.421-0.677,4.766-2.743,6.44-4.775C268.91,250.964,274.739,243.291,282.21,233.756z"/>
	<path fill="#EDAC40" d="M191.385,785.067c11.775,13.991,23.488,27.577,44.067,26.268c7.049,16.834,16.304,30.101,38.12,23.31
		c15.138,21.265,30.58,42.619,61.418,29.127c30.54,27.652,34.991,29.437,60.443,23.744c25.169,25.089,55.377,24.224,86.349,13.414
		c10.484,12.449,20.572,24.427,30.958,36.759c-9.116-0.684-19.024-0.193-28.323-2.34c-40.83-9.427-82.201-16.925-121.491-32.19
		c-24.687-9.591-49.935-17.978-73.883-29.152c-16.842-7.858-31.924-19.489-47.779-29.457c-3.198-2.01-6.336-4.116-11.29-7.341
		c0.647,3.237,0.455,4.991,1.199,5.596c15.385,12.535,29.475,27.505,46.621,36.865c43.105,23.531,87.72,44.423,135.426,57.164
		c24.494,6.541,49.424,12.157,74.516,15.487c14.98,1.988,30.675-1.026,45.999-2.371c2.773-0.244,7.554-3.267,7.578-5.058
		c0.167-12.701,12.95-13.363,18.933-20.35c1.519-1.773,7.341-1.002,10.68,0.115c17.466,5.844,33.576,3.89,48.89-6.513
		c2.852-1.937,7.51-3.651,10.408-2.687c16.951,5.642,32.686,1.665,48.79-5.177c14.161,7.14,24.979,21.916,43.884,19.399
		c16.708-2.225,30.229-9.724,42.502-21.825c17.207,6.909,34.388,15.1,53.815,8.656c18.859-6.256,27.387-23.152,38.546-37.049
		c40.966-1.232,49.806-3.822,73.313-21.621c15.427,10.715,21.059,25.628,19.872,44.134c-1.834,28.605-12.481,53.015-30.966,75.014
		c-35.926,42.757-83.624,66.753-134.936,83.244c-57.067,18.341-116.622,23.536-176.449,25.139
		c-52.936,1.418-104.451-6.406-155.353-20.548c-28.673-7.966-57.915-13.882-86.875-20.827
		c-18.967-4.549-36.683-11.645-52.064-24.204c-8.099-6.613-17.411-11.715-25.807-17.993c-36.834-27.546-72-56.84-95.665-97.283
		c-16.665-28.479-24.654-58.86-18.955-92.095C175.841,800.963,180.669,791.807,191.385,785.067z M598.551,942.035
		c7.074,10.027,15.407,10.904,23.273,11.567c25.235,2.128,50.504,4.954,75.782,5.196c30.817,0.295,61.661-1.912,91.27-11.848
		c6.439-2.161,12.462-5.563,18.677-8.393c-3.492-4.76-6.656-7.012-9.857-7.065c-6.007-0.1-12.053,0.936-18.052,1.737
		c-50.269,6.713-100.68,10.516-151.449,8.193C619.127,941.007,610.006,941.763,598.551,942.035z M549.896,1043.943
		c0.49,1.613,0.98,3.226,1.469,4.84c4.721-0.274,9.936,0.664,14.08-1.024c22.337-9.101,44.507-18.636,66.487-28.57
		c4.28-1.934,7.878-5.954,10.965-9.693c1.395-1.69,1.919-5.878,0.784-7.454c-1.62-2.25-5.378-4.679-7.774-4.287
		c-4.693,0.768-9.273,3.066-13.553,5.375c-19.822,10.695-39.554,21.557-59.248,32.486
		C558.563,1038.138,554.293,1041.154,549.896,1043.943z M488.768,1033.589c7.508,1.307,11.062,2.869,14.267,2.334
		c24.628-4.108,47.635-13.029,69.373-25.094c5.029-2.791,11.796-7.101,7.688-14.127c-4.416-7.554-10.6-1.883-15.817,0.481
		c-20.508,9.292-41,18.621-61.429,28.085C499.19,1026.964,495.857,1029.366,488.768,1033.589z M847.316,920.199
		c3.777,1.713,5.296,3.067,6.644,2.915c21.229-2.393,37.236-14.803,52.395-28.345c1.87-1.67,1.854-7.151,0.624-9.947
		c-0.721-1.639-5.902-2.589-8.493-1.837c-4.067,1.18-7.819,3.803-11.391,6.269c-10.805,7.462-21.528,15.048-32.12,22.809
		C852.507,913.871,850.687,916.563,847.316,920.199z M688.695,1005.867c-13.436,2.673-45.884,20.885-56.259,30.9
		C650.091,1038.525,680.447,1022.509,688.695,1005.867z M496.778,999.86c-7.246-6.452-13.777-3.016-19.428-0.364
		c-9.846,4.62-22.52,4.339-29.791,15.395C464.661,1019.584,488.447,1012.334,496.778,999.86z M691.691,1036.065
		c20.662-1.584,37.189-13.332,39.172-27.934C716.418,1015.791,704.689,1024.207,691.691,1036.065z M280.861,929.706
		c-12.535,5.081-22.887,10.51-30.947,21.327C267.338,951.789,278.991,944.337,280.861,929.706z M270.332,963.35
		c11.942-0.846,22.296-2.493,32.069-9.223C290.904,946.932,281.396,949.68,270.332,963.35z"/>
	<path fill="#FEC337" d="M155.248,694.032c59.04,25.086,120.376,24.683,181.612,24.285c66.604-0.433,129.544-18.562,191.468-41.11
		c3.577-1.302,7.066-2.843,10.725-4.324c64.443,63.182,147.014,75.393,231.223,85.232c-19.41,7.396-38.63,15.356-58.287,22.023
		c-17.975,6.097-34.593,14.344-49.764,25.681c-19.454,14.537-39.905,27.91-58.212,43.763c-17.022,14.74-31.836,32.037-47.527,48.3
		c-3.827,3.967-7.121,8.448-10.937,12.427c-13.812,14.4-24.954,13.463-35.961-3.561c-7.484-11.576-14.582-23.455-21.052-35.624
		c-22.782-42.853-55.686-76.859-94.333-105.07c-40.879-29.84-87.37-41.485-137.734-34.22c-18.476,2.665-36.703,7.349-54.859,11.852
		c-15.425,3.826-28.044,12.5-38.242,24.815c-4.054,4.896-8.866,9.164-15.809,16.243
		C140.059,751.634,139.335,723.054,155.248,694.032z M633.718,742.846c-8.888-0.139-17.465,0.019-26.007-0.457
		c-44.609-2.489-88.975-7.083-132.932-15.338c-5.424-1.019-11.858-3.759-16.509,3.366c3.691,9.003,11.765,11.865,19.671,13.256
		c34.142,6.007,68.289,12.257,102.672,16.478c13.336,1.637,27.385-1.292,40.943-3.279
		C627.73,755.966,634.444,753.16,633.718,742.846z M468.918,805.386c15.415,16.726,29.308,32.065,43.615,47.009
		c1.953,2.04,5.97,2.105,10.841,3.663C515.62,839.72,484.644,810.978,468.918,805.386z"/>
	<path fill="#E15830" d="M908.377,629.273c13.146,5.117,22.333-0.619,29.86-10.896c3.518-4.804,7.03-9.611,10.688-14.613
		c14.134,3.194,18.096,14.413,24.312,25.177c-12.601,10.546-26.58,17.7-41.892,22.148c-36.179,10.51-73.044,17.054-110.811,17.55
		c-24.27,0.318-48.68,1.898-72.779-0.095c-22.969-1.899-45.684-7.358-68.382-11.899c-16.096-3.22-31.977-7.515-51.767-12.241
		c4.442,4.585,5.994,7.055,8.228,8.309c4.31,2.418,8.84,4.736,13.568,6.072c40.809,11.538,81.01,25.991,124.129,26.839
		c57.272,1.126,113.537-5.395,167.777-24.391c13.296-4.656,25.311-12.967,37.915-19.598c3.7,9.394-0.66,44.031-6.664,49.806
		c-2.73,2.626-6.251,4.502-9.585,6.418c-46.539,26.744-97.389,38.177-150.344,40.731c-53.411,2.576-105.587-7.563-157.191-19.567
		c-37.599-8.746-69.148-31.011-103.683-51.219c9.58-6.044,17.958-10.864,25.822-16.411c9.424-6.648,18.34-14.012,27.632-20.853
		c2.532-1.865,5.481-3.463,8.485-4.338c18.505-5.39,29.559-18,36.509-35.478c2.542-6.392,1.102-16.748,12.661-16.62
		c10.718,0.118,15.773,7.285,18.69,16.035c7.441,22.318,25.028,35.984,42.412,49.405c19.878,15.347,37.716,14.157,57.122-1.992
		c7.625-6.345,14.993-12.999,22.609-19.354c1.144-0.955,3.012-1.043,5.703-1.902c0.892,3.883,2.115,7.363,2.391,10.917
		c0.296,3.821-0.448,7.711-0.469,11.572c-0.037,6.862,0.859,13.882,7.916,16.896c7.876,3.364,13.86-1.478,18.802-6.971
		c3.294-3.662,6.557-7.683,8.55-12.12c5.626-12.527,10.44-25.417,15.86-38.04c4.971-11.577,9.681-23.347,15.797-34.312
		c2.565-4.599,8.454-7.344,15.025-12.729c1.702,7.214,3.077,11.217,3.532,15.322c1.339,12.067,1.557,24.309,3.677,36.223
		c1.605,9.023,5.453,17.647,8.303,26.447c-7.118-1.468-13.57-9.315-24.013-1.982c7.815,5.253,13.841,10.028,20.556,13.453
		c2.602,1.327,6.762-0.4,10.212-0.735c-1.431-3.133-2.744-6.329-4.373-9.356C910.734,630.072,909.333,629.793,908.377,629.273z
		 M628.595,632.132c21.913,3.742,40.072,0.222,58.167-0.571c2.5-0.109,4.877-2.999,7.618-4.803
		c-4.915-7.984-11.757-7.592-18.079-6.845C661.229,621.695,645.096,619.72,628.595,632.132z"/>
	<path fill="#B0D63E" d="M611.67,610.783c-0.959-7.847-1.623-14.198-2.528-20.515c-2.368-16.531-11.761-21.904-26.909-14.569
		c-8.741,4.233-16.762,9.953-27.868,16.675c-0.065-8.351-0.196-14.11-0.14-19.867c0.217-22.507-15.424-32.384-35.147-21.475
		c-7.925,4.384-14.709,10.832-22.443,15.823c9.766-14.52,20.37-27.773,39.054-31.995c9.385-2.121,16.838-0.631,24.632,5.289
		c8.687,6.597,18.518,11.748,28.108,17.066c4.281,2.374,9.188,3.612,14.975-1.718c-8.074-6.177-15.542-11.89-23.195-17.744
		c11.827-6.891,21.772-14.297,32.9-18.743c12.602-5.035,26.087-9.116,39.511-10.52c16.91-1.769,29.827,6.444,36.438,22.826
		c2.477,6.138,4.444,12.484,6.967,18.602c6.724,16.303,17.651,29.3,32.434,38.749c5.713,3.652,12.219,7.691,21.399,0.974
		c-14.341-10.895-27.302-21.775-34.449-39.374c29.378-2.242,57.885-4.417,89.441-6.824c-11.302,8.778-20.983,16.298-30.43,23.636
		c2.245,7.552,7.306,7.167,11.922,4.592c10.552-5.885,21.141-11.857,30.973-18.84c12.131-8.615,23.245-18.653,35.275-27.422
		c17.03-12.413,36.755-17.662,57.475-18.561c22.398-0.973,30.639,6.755,34.556,28.804c2.009,11.311,4.098,22.998,8.716,33.373
		c9.067,20.373,32.202,30.584,52.253,24.882c10.496-2.985,13.141-6.468,13.783-18.148c-31.936,7.425-42.126,3.5-51.546-19.664
		c28.891-15.586,57.848-30.996,86.576-46.821c10.035-5.528,20.493-7.309,31.762-7.436c12.446-0.14,21.111,5.348,27.158,15.618
		c2.225,3.78,4.038,7.866,5.551,11.991c10.353,28.225,1.167,46.029-27.841,53.853c-10.032,2.705-20.184,4.965-32.258,7.91
		c0.714-21.462,5.64-40.02,16.942-56.77c3.408-5.051,8.299-7.091,14.409-5.251c6.313,1.901,10.867,5.404,11.221,12.586
		c0.231,4.689,0.344,9.384,0.538,14.871c11.29-7.497,13.276-19.544,6.038-29.649c-10.346-14.446-31.129-15.029-42.462-0.66
		c-11.551,14.646-17.12,31.98-20.321,50.118c-3.928,22.256-7.68,44.544-11.566,66.808c-1.437,8.233-5.454,14.342-15.239,16.643
		c-12.182-8.774-21.274-20.97-29.767-33.894c-5.73-8.719-11.576-17.669-18.92-24.955c-13.436-13.331-26.094-11.856-37.679,2.708
		c-3.605,4.532-7.613,8.744-13.728,15.714c-1.887-7.981-3.3-12.45-3.96-17.029c-2.046-14.191-3.1-28.56-5.845-42.606
		c-3.939-20.161-19.412-25.433-35.341-12.262c-12.188,10.078-19.973,23.273-25.089,38.261c-4.088,11.978-8.857,23.735-13.699,35.435
		c-1.381,3.337-4.071,6.132-6.962,10.344c-1.336-6.522-1.948-11.402-3.361-16.037c-3.632-11.916-11.963-16.171-22.915-10.555
		c-7.247,3.716-14.284,8.733-19.875,14.628c-22.489,23.711-44.102,17.738-65.713-4.245c-9.76-9.928-15.55-23.872-22.639-36.28
		c-5.534-9.686-12.907-16.28-24.15-18.219c-16.368-2.823-23.28,0.786-29.932,16.083c-1.539,3.54-2.591,7.304-4.281,10.763
		C629.823,597.29,623.635,605.393,611.67,610.783z"/>
	<path fill="#E15830" d="M140.515,578.406c9.022-3.035,18.169-6.112,28.408-9.556c2.883,15.606,11.575,24.515,28.342,21.624
		c4.939,6.733,9.027,13.376,14.161,19.078c9.934,11.035,20.378,9.891,28.371-2.79c3.113-4.938,5.52-10.321,9.087-17.094
		c3.816,6.628,6.665,11.859,9.777,16.929c12.638,20.593,39.437,26.326,59.058,12.459c21.766-15.383,45.677-26.416,70.614-35.407
		c11.261-4.06,22.628-7.825,36.326-12.543c-0.018,8.684-0.23,14.569,0,20.437c0.475,12.096-0.237,24.466,2.094,36.216
		c4.982,25.109,23.569,35.927,48.216,28.696c19.765-5.799,35.882-16.901,45.448-35.936c1.983-3.946,3.698-8.059,6.006-11.805
		c6.01-9.754,9.718-11.027,19.651-4.892c9.489,5.86,16.757,1.918,24.199-3.425c7.452-5.351,13.934-12.418,25.628-14.674
		c0.626,10.349,2.539,19.72,1.205,28.604c-0.748,4.98-6.048,10.394-10.71,13.478c-23.067,15.261-47.146,28.658-73.537,37.597
		c-45.655,15.465-92.259,27.723-140.277,31.143c-47.398,3.376-94.948,0.405-142.04-7.087c-23.475-3.735-46.275-8.987-68.232-19.128
		c-21.729-10.035-32.328-25.477-32.829-48.729c-0.235-10.915-0.269-21.835,0.45-33.137c5.188,26.304,26.312,37.17,46.916,45.783
		c65.445,27.358,132.605,31.501,200.582,9.088c5.952-1.963,11.421-5.394,19.884-9.481c-10.362-5.279-17.147-1.824-23.428-0.313
		c-35.293,8.495-71.017,10.635-106.91,6.52c-35.219-4.038-69.543-11.867-101.022-29.401
		C152.997,603.443,142.789,594.579,140.515,578.406z"/>
	<path fill="#C38042" d="M862.984,865.066c-0.702-3.602-0.554-6.089-1.657-7.74c-1.662-2.488-4.162-6.044-6.374-6.093
		c-2.338-0.052-5.413,3.045-7.02,5.512c-5.68,8.721-10.441,18.056-16.339,26.616c-10.343,15.013-25.842,20.174-42.24,14.842
		c-19.27-6.266-35.742-7.338-53.696,4.864c-12.597,8.561-27.527,5.302-40.378-5.313c0.412-5.487,0.836-11.139,1.423-18.958
		c-5.417,2.085-9.279,2.692-12.025,4.772c-16.124,12.212-34.235,14.237-53.472,11.273c-4.362-0.672-8.702-1.593-13.089-1.985
		c-12.212-1.09-13.052-0.251-14.551,14.784c-8.429,0.783-17.193,1.598-25.958,2.412c-0.477-1.198-0.953-2.396-1.43-3.594
		c13.432-15.021,26.331-30.548,42.645-42.852c4.846-3.655,10.188-6.77,14.563-10.913c45.99-43.547,103.479-63.902,162.601-81.03
		c3.703-1.073,7.553-1.892,11.01-3.519c24.828-11.678,45.725-3.288,65.394,12.328c10.292,8.171,20.946,15.889,31.167,24.146
		c8.888,7.18,17.398,14.829,25.144,21.473C915.619,855.662,891.204,862.018,862.984,865.066z M687.074,869.306
		c15.544-1.436,31.936-3.143,42.564-18.578c2.855-4.146,6.054-9.515,1.226-13.186c-3.22-2.448-8.897-2.026-13.491-2.132
		c-1.914-0.044-3.785,2.119-5.826,2.868c-10.719,3.935-21.571,7.525-32.191,11.707c-3.641,1.434-6.742,4.238-10.089,6.417
		c2.882,3.61,5.388,7.646,8.799,10.657C679.862,868.644,683.238,868.438,687.074,869.306z M761.434,850.269
		c3.944,11.471,11.694,10.678,19.378,10.12c8.441-0.612,16.788-1.888,20.844-10.485c1.122-2.378,0.558-6.963-1.124-8.851
		c-1.637-1.839-6.077-2.735-8.625-1.935C782.073,842.203,772.503,846.132,761.434,850.269z M752.113,815.745
		c17.714,3.413,35.063-2.574,40.027-12.567c1.736-3.494-0.12-8.772-0.336-13.235c-3.49,0.434-7.597-0.147-10.335,1.521
		c-5.053,3.078-9.303,7.475-13.889,11.321C763.285,806.387,758.986,809.986,752.113,815.745z M872.018,812.299
		c-12.588,4.879-23.871,9.251-36.418,14.113c11.094,8.98,25.686,9.36,34.942,2.38C876.108,824.595,877.982,819.576,872.018,812.299z
		"/>
	<path fill="#C38042" d="M383.982,871.033c-20.92,4.741-32.186-10.668-45.988-21.691c-31.464,9.197-45.015-14.117-60.344-34.557
		c-1.681,0.858-3.337,1.29-4.419,2.323c-7.22,6.898-10.246,7.623-15.328,0.871c-4.908-6.52-8.192-14.263-12.179-21.475
		c-2.459-4.447-4.899-8.905-9.045-16.445c-2.889,7.65-4.303,11.394-6.023,15.946c-17.6-5.219-23.714-18.702-28.419-34.955
		c18.44-9.55,38.017-12.569,57.601-13.407c51.219-2.192,96.306,14.719,135.596,47.154c13.174,10.876,25.457,22.836,38.077,34.376
		c11.723,10.72,32.541,40.82,37.915,55.504c-26.544-2.169-52.301-2.359-68.903-27.601c-3.746-5.696-7.99-14.405-16.431-10.463
		c-8.606,4.02-3.567,12.408-2.229,19.156C384.172,867.326,383.952,868.987,383.982,871.033z M394.869,815.762
		c-1.317-1.38-1.93-2.595-2.84-2.889c-16.771-5.426-33.522-10.185-43.466-27.298c-3.329-5.729-12.374-2.602-13.605,4.409
		c-0.715,4.067-0.052,8.88,1.496,12.755c7.299,18.27,39.955,27.86,56.923,16.962C394.085,819.245,394.142,817.774,394.869,815.762z
		 M307.54,800.497c-7.974-3.635-16.038-6.683-23.461-10.87c-7.591-4.281-14.41-9.915-21.888-14.422
		c-1.875-1.13-6.7-1.076-7.207-0.071c-1.56,3.089-2.983,7.248-2.15,10.377c4.637,17.425,37.988,29.161,53.467,19.144
		C306.648,804.431,306.63,803.642,307.54,800.497z"/>
	<path fill="#FEC337" d="M972.695,709.779c25.455,39.864,24.081,113.444-1.637,132.417c-8.833-9.711-18.014-19.096-26.367-29.167
		c-10.359-12.489-22.245-22.676-36.97-29.738c-5.864-2.812-11.183-6.92-16.388-10.91c-9.101-6.976-17.921-14.317-27.655-22.145
		c18.554-5.316,37.49-9.564,55.527-16.239C937.145,727.358,954.184,718.281,972.695,709.779z"/>
	<path fill="#B0D63E" d="M108.367,453.57c-0.858-11.113-1.089-21.689,9.596-28.039c6.348-3.773,19.14,2.482,26.713,12.557
		c3.959,5.267,6.833,11.335,10.507,16.835c9.448,14.145,19.068,28.175,28.809,42.531c-27.048,12.814-44.819,33.571-46.61,65.439
		c-11.449-0.528-12.403-7.46-12.396-14.985c0.011-11.459-2.498-21.795-11.558-29.827c-11.06-9.805-18.711-9.435-27.74,2.208
		c-3.351,4.322-6.003,9.185-9.339,14.37c-5.702-3.741-6.358-9.601-5.032-14.479c2.572-9.467,5.669-19.057,10.346-27.614
		c4.816-8.812,11.124-10.104,19.432-4.165c12.867,9.198,27.056,17.574,31.062,35.02c0.53,2.309,4.196,3.898,6.409,5.821
		c1.673-2.538,4.397-4.907,4.834-7.642c1.699-10.613-2.721-19.559-9.685-27.088c-7.405-8.004-15.412-15.451-23.782-23.764
		c11.911-9.348,22.399-0.401,35.863,2.038C137.224,454.558,122.411,455.32,108.367,453.57z"/>
	<path fill="#B0D63E" d="M334.659,566.627c-7.092,12.673-13.325,26.01-23.831,36.481c-13.04,12.997-30.801,10.779-40.845-4.623
		c-3.911-5.997-6.926-12.577-10.816-18.589c-6.134-9.48-14.007-10.4-21.522-1.952c-4.971,5.587-8.64,12.332-13.93,20.079
		c-4.624-6.38-8.909-11.349-12.135-16.93c-8.347-14.437-8.161-14.544-25.111-9.502c0.01-5.6,0.125-10.75,0.005-15.894
		c-0.262-11.236-5.817-15.058-15.967-10.742c-3.965,1.686-7.576,4.206-11.612,6.496c-2.074-15.055,9.716-30.829,28.908-38.972
		c1.271,4.151,2.394,8.263,3.788,12.281c3.942,11.363,8.195,13.868,19.869,11.753c2.698-0.489,5.305-1.52,8.01-1.923
		c6.663-0.992,11.92,0.336,13.955,7.983c2.695,10.122,10.022,15.732,19.872,17.721c6.074,1.227,9.148,4.819,12.302,9.752
		c14.1,22.051,32.299,23.984,52.017,6.05c4.552-4.14,9.264-8.105,13.903-12.151C332.565,564.84,333.612,565.733,334.659,566.627z"/>
	<path fill="#B0D63E" d="M504.61,608.989c-6.605,16.533-26.565,30.548-43.075,30.513c-7.963-0.017-14.499-2.916-17.151-10.409
		c-2.712-7.662-4.856-15.82-5.397-23.886c-0.771-11.507,0.139-23.127,0.346-34.698c0.059-3.306,0.297-6.613,0.235-9.916
		c-0.681-36.058-22.279-54.495-58.179-49.68c-2.128,0.285-4.227,0.788-6.833,1.283c7.863-12.838,26.516-20.942,43.558-19.254
		c14.754,1.461,22.463,11.44,26.109,24.199c3.606,12.615,5.515,25.754,7.611,38.753c2.449,15.189,2.971,30.808,6.702,45.643
		c6.126,24.354,18.155,27.893,38.315,13.011c2.584-1.907,5.379-3.528,8.076-5.282C504.927,609.266,504.61,608.989,504.61,608.989z"
		/>
	<path fill="#B0D63E" d="M342.488,586.557c7.728-14.449,14.916-29.222,23.329-43.262c9.315-15.545,18.787-18.986,36.255-15.209
		c14.137,3.056,19.059,9.371,22.259,29.189c-28.945,4.187-55.295,15.368-79.174,32.766
		C344.268,588.88,343.378,587.719,342.488,586.557z"/>
	<path fill="#B0D63E" d="M268.273,504.397c-3.842,2.079-7.704,4.121-11.519,6.249c-3.7,2.064-7.351,4.216-10.519,7.606
		c10.151,0.359,19.026-3.594,27.433-8.336c6.121-3.453,11.194-4.249,16.579,2.559c-9.273,13.641-21.874,22.434-37.073,26.022
		c-6.498-6.523-11.513-14.704-18.742-17.942c-7.482-3.351-17.112-1.905-28.366-2.75c-0.806-2.613-2.318-7.519-3.388-10.992
		c16.596-3.454,31.976-7.284,47.582-9.577c5.858-0.861,12.24,1.852,18.383,2.935C268.52,501.579,268.397,502.988,268.273,504.397z"
		/>
	<path fill="#B0D63E" d="M504.927,609.266c-0.663-3.09-1.327-6.18-2.345-10.919c-7.903,2.991-14.837,5.615-23.135,8.755
		c-10.427-19.365-10.257-39.886-10.628-61.936c6.919,1.955,12.461,3.522,19.315,5.459c-1.823,4.343-3.18,7.643-4.591,10.919
		c-1.951,4.53-4.407,8.903-5.822,13.592c-3.094,10.255-1.334,18.274,4.645,20.586c8.422,3.256,13.073-2.838,17.863-8.195
		c6.193-6.926,11.977-14.319,18.838-20.513c5.205-4.699,11.647-8.701,21.054-3.13c-0.18,6.067-0.385,12.985-0.584,19.684
		c-7.608,3.357-15.156,5.389-21.07,9.676c-5.522,4.003-9.309,10.4-13.858,15.745C504.61,608.989,504.927,609.266,504.927,609.266z"
		/>
	<path fill="#B0D63E" d="M329.338,518.929c0.594,3.229,1.635,5.326,1.021,6.084c-8.243,10.182-16.279,20.595-25.291,30.071
		c-5.859,6.16-8.66,5.267-22.983-3.279c9.334-4.286,18.596-7.149,26.189-12.417C315.862,534.122,321.779,526.45,329.338,518.929z"/>
	<path fill="#541C00" d="M367.952,396.884c-27.474,13.785-39.565,13.663-52.121,0.085c-8.757-9.47-9.744-17.043-2.837-28.03
		c2.242,4.302,4.016,8.144,6.17,11.759c7.04,11.813,15.29,14.704,27.774,9.005c6.467-2.953,12.26-7.346,18.562-10.705
		c8.41-4.481,11.554-3.485,16.017,4.48c0.8,1.428,1.161,3.095,1.884,4.574c12.426,25.421,30.372,33.913,58.143,27.703
		c14.908-3.334,27.47-10.95,38.956-20.691c3.572-3.029,7.315-5.855,12.036-9.614c-0.553,20.922-22.893,41.437-50.659,48.593
		C408.922,442.536,388.074,432.216,367.952,396.884z"/>
	<path fill="#541C00" d="M890.318,389.28c7.553,4.862,13.514,8.331,19.075,12.353c12.057,8.723,25.243,10.538,39.336,6.903
		c13.695-3.533,21.006-11.686,20.773-26.077c-0.219-13.563-2.601-27.092-4.3-43.174c2.845,3.834,5.424,5.818,5.921,8.231
		c2.55,12.365,5.917,24.784,6.443,37.291c0.76,18.065-8.254,28.624-25.634,33.765c-20.234,5.986-38.146,1.869-54.586-14.11
		c-7.487,21.335-22.622,28.425-42.856,24.164c-13.871-2.92-27.145-7.671-30.456-25.493c3.616,1.752,7.091,3.934,10.875,5.172
		c9.291,3.04,18.574,7.075,28.136,8.079c13.358,1.402,18.457-3.247,22.965-16.243C886.89,397.608,887.981,395.147,890.318,389.28z"
		/>
	<path fill="#541C00" d="M446.177,264.797c0.501,9.893-16.412,53.814-22.951,59.599c-8.235,7.286-18.481,5.455-22.842-4.616
		c-1.672-3.862-2.404-8.544-2.138-12.763C399.676,284.344,422.402,264.533,446.177,264.797z"/>
	<path fill="#541C00" d="M726.837,267.876c5.628,0.423,11.958-0.671,16.755,1.548c15.192,7.03,23.431,19.627,24.787,36.43
		c0.565,6.999-0.698,13.425-8.045,16.513c-6.37,2.678-13.667-0.111-17.637-8.237c-6.729-13.772-12.397-28.063-18.511-42.136
		C725.069,270.622,725.953,269.249,726.837,267.876z"/>
	<path fill="#541C00" d="M764.078,218.792c23.857,3.83,38.226,17.012,41.805,36.282c1.306,7.032,0.792,13.501-5.853,17.348
		c-7.357,4.258-13.236-0.13-16.79-5.814c-7.249-11.594-13.756-23.693-19.818-35.955C762.042,227.862,763.72,223.561,764.078,218.792
		z"/>
	<path fill="#541C00" d="M571.847,265.191c15.769,13.554,20.925,41.303,11.336,57.246c-4.012,6.67-9.389,10.734-17.594,9.176
		c-8.582-1.629-11.033-8.28-12.034-15.67C551.895,303.692,560.951,278.369,571.847,265.191z M572.449,292.423
		c-4.825,7.637-11.264,15.015-4.562,25.78C575.789,309.778,574.774,301.206,572.449,292.423z"/>
	<path fill="#541C00" d="M277.03,309.964c1.302-2.718,2.594-9.552,6.714-13.14c8.182-7.128,17.741-12.777,27.152-18.322
		c2.218-1.307,7.09-0.874,8.937,0.776c1.67,1.493,2.049,6.268,0.965,8.684c-4.497,10.03-9.407,19.922-14.931,29.419
		c-2.091,3.596-5.808,6.854-9.551,8.767C285.429,331.714,276.115,325.242,277.03,309.964z"/>
	<path fill="#541C00" d="M629.974,211.775c18.752,10.45,26.268,26.834,22.115,44.768c-1.683,7.269-5.798,12.05-13.21,12.583
		c-7.865,0.566-12.183-4.79-13.877-11.612C621.21,242.245,622.659,227.377,629.974,211.775z"/>
	<path fill="#541C00" d="M819.995,177.973c18.622,1.536,32.01,7.279,41.187,20.764c3.857,5.667,5.681,12.407-0.212,17.965
		c-5.886,5.551-12.298,3.333-17.928-0.826C831.173,207.11,825.281,194.576,819.995,177.973z"/>
	<path fill="#541C00" d="M386.911,181.571c-3.4,19.81-19.646,38.077-34.687,39.872c-3.773,0.45-10.123-1.117-11.355-3.661
		c-1.721-3.555-1.19-9.824,1.007-13.242c2.782-4.33,7.769-7.898,12.577-10.136C364.369,189.79,374.795,186.276,386.911,181.571z"/>
	<path fill="#541C00" d="M922.639,322.101c-1.557,1.508-4.552,6.775-8.212,7.286c-3.665,0.512-10.043-2.744-11.639-6.072
		c-4.458-9.292-7.545-19.353-10.078-29.386c-0.721-2.858,1.417-8.198,3.856-9.602c2.489-1.434,7.398-0.307,10.483,1.231
		C918.029,291.029,925.17,306.599,922.639,322.101z"/>
	<path fill="#541C00" d="M521.33,183.568c-4.015,12.951-7.003,23.381-10.508,33.634c-2.59,7.579-6.809,14.472-15.78,14.728
		c-3.055,0.087-7.434-2.747-9.093-5.514c-4.686-7.812-1.021-15.064,4.172-21.104c5.725-6.66,11.856-13.095,18.577-18.711
		C511.315,184.415,516.025,184.732,521.33,183.568z"/>
	<path fill="#541C00" d="M509.501,128.771c-0.041,3.855,0.597,6.269-0.172,6.864c-11.149,8.622-22.15,17.532-34.021,25.057
		c-2.906,1.842-10.161,0.472-13.027-2.092c-4.849-4.338-2.035-10.02,1.822-14.467c1.059-1.221,2.33-2.346,3.701-3.197
		C480.489,133.061,494.836,132.05,509.501,128.771z"/>
	<path fill="#541C00" d="M666.482,153.422c13.498,3.618,26.565,19.072,25.187,31.742c-0.489,4.496-4.384,10.103-8.347,12.383
		c-5.549,3.194-10.217-1.284-13.416-6.203C665.062,183.893,663.438,165.541,666.482,153.422z"/>
	<path fill="#541C00" d="M599.852,141.516c3.298,2.881,5.31,3.761,5.513,4.95c2.234,13.131,2.203,26.308-4.906,37.949
		c-2.076,3.4-8.351,6.765-11.827,6.027c-3.115-0.661-6.604-6.806-7.071-10.86c-0.586-5.093,0.638-11.102,3.053-15.673
		C588.575,156.409,594.126,149.748,599.852,141.516z"/>
	<path fill="#541C00" d="M722.978,138.492c13.183-2.922,24.048,0.937,28.864,9.945c2.424,4.535,4.02,9.343-0.841,13.471
		c-4.648,3.948-9.46,2.637-13.567-0.655C730.1,155.374,724.579,148.202,722.978,138.492z"/>
	<path fill="#541C00" d="M282.21,233.756c-7.471,9.535-13.3,17.209-19.423,24.639c-1.674,2.032-4.019,4.098-6.44,4.775
		c-2.892,0.809-7.628,1.387-8.988-0.176c-2.048-2.354-3.531-7.533-2.264-9.935c2.391-4.536,6.282-9.04,10.689-11.582
		C262.9,237.37,269.64,230.697,282.21,233.756z"/>
	<path fill="#541C00" d="M598.551,942.035c11.455-0.271,20.577-1.028,29.644-0.613c50.769,2.323,101.18-1.48,151.449-8.193
		c5.998-0.801,12.045-1.837,18.052-1.737c3.201,0.053,6.365,2.305,9.857,7.065c-6.215,2.83-12.238,6.231-18.677,8.393
		c-29.608,9.937-60.453,12.144-91.27,11.848c-25.278-0.242-50.547-3.068-75.782-5.196
		C613.957,952.938,605.624,952.062,598.551,942.035z"/>
	<path fill="#541C00" d="M549.896,1043.943c4.396-2.789,8.666-5.805,13.211-8.327c19.695-10.928,39.427-21.791,59.248-32.486
		c4.279-2.309,8.86-4.607,13.553-5.375c2.396-0.392,6.154,2.037,7.774,4.287c1.135,1.576,0.611,5.764-0.784,7.454
		c-3.087,3.739-6.685,7.758-10.965,9.693c-21.98,9.934-44.15,19.469-66.487,28.57c-4.144,1.689-9.359,0.75-14.08,1.024
		C550.876,1047.169,550.386,1045.556,549.896,1043.943z"/>
	<path fill="#541C00" d="M488.768,1033.589c7.089-4.224,10.422-6.625,14.083-8.321c20.429-9.464,40.921-18.793,61.429-28.085
		c5.218-2.364,11.401-8.035,15.817-0.481c4.108,7.026-2.659,11.336-7.688,14.127c-21.738,12.066-44.745,20.986-69.373,25.094
		C499.83,1036.458,496.276,1034.897,488.768,1033.589z"/>
	<path fill="#541C00" d="M847.316,920.199c3.371-3.636,5.191-6.328,7.66-8.136c10.592-7.761,21.315-15.347,32.12-22.809
		c3.571-2.466,7.323-5.089,11.391-6.269c2.591-0.752,7.772,0.199,8.493,1.837c1.23,2.796,1.246,8.277-0.624,9.947
		c-15.159,13.541-31.167,25.951-52.395,28.345C852.612,923.266,851.093,921.912,847.316,920.199z"/>
	<path fill="#541C00" d="M688.695,1005.867c-8.249,16.642-38.605,32.657-56.259,30.9
		C642.812,1026.752,675.259,1008.541,688.695,1005.867z"/>
	<path fill="#541C00" d="M496.778,999.86c-8.332,12.475-32.118,19.725-49.22,15.032c7.271-11.057,19.945-10.775,29.791-15.395
		C483.002,996.844,489.533,993.408,496.778,999.86z"/>
	<path fill="#541C00" d="M691.691,1036.065c12.998-11.858,24.728-20.274,39.172-27.934
		C728.88,1022.733,712.353,1034.48,691.691,1036.065z"/>
	<path fill="#541C00" d="M280.861,929.706c-1.871,14.631-13.524,22.084-30.947,21.327
		C257.974,940.216,268.327,934.787,280.861,929.706z"/>
	<path fill="#541C00" d="M270.332,963.35c11.065-13.67,20.573-16.418,32.069-9.223C292.628,960.857,282.274,962.504,270.332,963.35z
		"/>
	<path fill="#541C00" d="M633.718,742.846c0.726,10.314-5.988,13.12-12.162,14.025c-13.558,1.988-27.608,4.916-40.943,3.279
		c-34.383-4.22-68.53-10.471-102.672-16.478c-7.906-1.391-15.98-4.253-19.671-13.256c4.652-7.125,11.085-4.385,16.509-3.366
		c43.957,8.255,88.324,12.849,132.932,15.338C616.252,742.865,624.829,742.706,633.718,742.846z"/>
	<path fill="#541C00" d="M468.918,805.386c15.726,5.592,46.703,34.334,54.456,50.672c-4.871-1.558-8.888-1.623-10.841-3.663
		C498.226,837.451,484.333,822.111,468.918,805.386z"/>
	<path fill="#541C00" d="M628.595,632.132c16.5-12.412,32.634-10.437,47.706-12.218c6.322-0.747,13.164-1.139,18.079,6.845
		c-2.741,1.804-5.119,4.693-7.618,4.803C668.667,632.354,650.508,635.874,628.595,632.132z"/>
	<path fill="#541C00" d="M908.377,629.273c0.956,0.519,2.357,0.799,2.789,1.601c1.628,3.027,2.942,6.223,4.373,9.356
		c-3.45,0.336-7.61,2.062-10.212,0.735c-6.714-3.425-12.74-8.199-20.556-13.453c10.443-7.333,16.895,0.514,24.013,1.982
		C908.783,629.496,908.377,629.273,908.377,629.273z"/>
	<path fill="#541C00" d="M687.074,869.306c-3.836-0.868-7.212-0.662-9.008-2.247c-3.411-3.011-5.917-7.047-8.799-10.657
		c3.348-2.178,6.449-4.983,10.089-6.417c10.62-4.182,21.471-7.772,32.191-11.707c2.041-0.749,3.912-2.912,5.826-2.868
		c4.594,0.106,10.271-0.316,13.491,2.132c4.828,3.672,1.629,9.04-1.226,13.186C719.01,866.163,702.618,867.87,687.074,869.306z"/>
	<path fill="#541C00" d="M761.434,850.269c11.069-4.138,20.639-8.066,30.474-11.151c2.548-0.799,6.987,0.097,8.625,1.935
		c1.681,1.888,2.245,6.473,1.124,8.851c-4.056,8.597-12.403,9.873-20.844,10.485C773.128,860.947,765.378,861.74,761.434,850.269z"
		/>
	<path fill="#541C00" d="M752.113,815.745c6.873-5.759,11.172-9.358,15.468-12.96c4.586-3.846,8.836-8.243,13.889-11.321
		c2.738-1.668,6.845-1.087,10.335-1.521c0.216,4.463,2.071,9.741,0.336,13.235C787.176,813.171,769.827,819.158,752.113,815.745z"/>
	<path fill="#541C00" d="M872.018,812.299c5.964,7.277,4.09,12.296-1.476,16.493c-9.255,6.98-23.848,6.6-34.942-2.38
		C848.147,821.55,859.43,817.178,872.018,812.299z"/>
	<path fill="#541C00" d="M394.869,815.762c-0.727,2.012-0.784,3.483-1.493,3.939c-16.968,10.898-49.624,1.308-56.923-16.962
		c-1.548-3.876-2.211-8.688-1.496-12.755c1.232-7.011,10.276-10.138,13.605-4.409c9.944,17.113,26.695,21.872,43.466,27.298
		C392.939,813.167,393.552,814.382,394.869,815.762z"/>
	<path fill="#541C00" d="M307.54,800.497c-0.91,3.145-0.892,3.934-1.239,4.159c-15.48,10.016-48.831-1.719-53.467-19.144
		c-0.833-3.129,0.59-7.288,2.15-10.377c0.508-1.005,5.333-1.058,7.207,0.071c7.479,4.507,14.298,10.14,21.888,14.422
		C291.502,793.814,299.567,796.862,307.54,800.497z"/>
	<path fill="#FEC337" d="M572.449,292.423c2.326,8.783,3.34,17.356-4.562,25.78C561.185,307.437,567.624,300.059,572.449,292.423z"
		/>
</g>
</svg>
